<?xml version="1.0" standalone="no"?>
<!DOCTYPE svg PUBLIC "-//W3C//DTD SVG 20010904//EN"
 "http://www.w3.org/TR/2001/REC-SVG-20010904/DTD/svg10.dtd">
<svg version="1.0" xmlns="http://www.w3.org/2000/svg"
 width="150.000000pt" height="150.000000pt" viewBox="0 0 150.000000 150.000000"
 preserveAspectRatio="xMidYMid meet">
<metadata>
Created by potrace 1.14, written by Peter Selinger 2001-2017
</metadata>
<g transform="translate(0.000000,150.000000) scale(0.100000,-0.100000)"
fill="#000000" stroke="none">
<path d="M105 1486 c-37 -17 -80 -62 -94 -99 -15 -39 -15 -1235 0 -1274 14
-38 57 -83 96 -99 48 -21 1238 -21 1286 0 39 16 82 61 96 99 7 19 11 232 11
638 0 495 -3 616 -14 642 -16 39 -61 82 -99 96 -45 17 -1243 14 -1282 -3z
m770 -250 c85 -36 125 -109 125 -227 0 -100 -17 -156 -62 -201 -22 -22 -38
-41 -36 -42 2 -1 17 -12 35 -24 17 -12 41 -43 54 -69 20 -41 22 -62 22 -167 0
-139 -14 -187 -69 -235 -49 -43 -90 -52 -271 -58 l-163 -6 0 528 0 528 163 -5
c120 -4 172 -10 202 -22z"/>
<path d="M670 970 l0 -140 50 0 c98 0 120 27 120 149 0 64 -4 83 -21 105 -18
23 -27 26 -85 26 l-64 0 0 -140z"/>
<path d="M670 525 l0 -165 69 0 c103 0 115 13 120 131 6 160 -21 199 -139 199
l-50 0 0 -165z"/>
</g>
</svg>
